<?xml version="1.0" encoding="UTF-8" standalone="no"?>
<svg
   xmlns:dc="http://purl.org/dc/elements/1.1/"
   xmlns:cc="http://creativecommons.org/ns#"
   xmlns:rdf="http://www.w3.org/1999/02/22-rdf-syntax-ns#"
   xmlns:svg="http://www.w3.org/2000/svg"
   xmlns="http://www.w3.org/2000/svg"
   xmlns:sodipodi="http://sodipodi.sourceforge.net/DTD/sodipodi-0.dtd"
   xmlns:inkscape="http://www.inkscape.org/namespaces/inkscape"
   inkscape:export-ydpi="300"
   inkscape:export-xdpi="300"
   inkscape:export-filename="F:\C# Projects\TrekSharp\TrekSharp.AdventureTools\wwwroot\assets\artwork\ships\ConstitutionClass.png"
   sodipodi:docname="ship template.svg"
   inkscape:version="1.0 (4035a4fb49, 2020-05-01)"
   id="svg8"
   version="1.1"
   viewBox="0 0 169.33333 127"
   height="480"
   width="640">
  <defs
     id="defs2" />
  <sodipodi:namedview
     inkscape:pagecheckerboard="0"
     showguides="false"
     inkscape:window-maximized="1"
     inkscape:window-y="-8"
     inkscape:window-x="-8"
     inkscape:window-height="987"
     inkscape:window-width="1680"
     units="px"
     showgrid="false"
     inkscape:document-rotation="0"
     inkscape:current-layer="layer1"
     inkscape:document-units="mm"
     inkscape:cy="329.55255"
     inkscape:cx="3246.4574"
     inkscape:zoom="0.22627417"
     inkscape:pageshadow="2"
     inkscape:pageopacity="0.0"
     borderopacity="1.0"
     bordercolor="#666666"
     pagecolor="#ffffff"
     id="base" />
  <metadata
     id="metadata5">
    <rdf:RDF>
      <cc:Work
         rdf:about="">
        <dc:format>image/svg+xml</dc:format>
        <dc:type
           rdf:resource="http://purl.org/dc/dcmitype/StillImage" />
      </cc:Work>
    </rdf:RDF>
  </metadata>
  <g
     id="layer1"
     inkscape:groupmode="layer"
     inkscape:label="Ships">
    <g
       transform="translate(-51.676432,-59.53125)"
       inkscape:label="Galaxy"
       id="g5755">
      <path
         sodipodi:nodetypes="ccccccccccccccccccc"
         id="path4036"
         d="m 656.38265,384.80777 c -15.40395,0.7379 -42.26208,3.14211 -49.11077,13.447 l -2.3386,-0.36541 h -49.03769 c -6.07062,3.05003 -3.74905,4.94819 0,6.65043 h 3.72716 v 0.87696 h 3.58098 l 0.51157,1.31548 c -1.73986,1.86197 -3.30486,3.85509 -3.5079,6.86967 h 24.33614 c 6.06249,0.19651 7.47926,2.7159 10.30449,4.53104 10.96504,0.2736 21.35877,-0.59541 30.76731,-3.43482 7.67253,-4.53528 3.97726,-11.8659 15.56636,-18.92813 13.81315,2.03296 27.51732,4.13808 55.39579,-3.14248 h 14.76248 l -0.32531,-1.21399 c -13.1121,-2.60611 -25.1874,-7.28584 -39.86953,-6.7519 -4.93222,0.0122 -10.72725,-2.73649 -14.76248,0.14615 z"
         style="fill:none;stroke:#ff6600;stroke-width:1;stroke-linecap:butt;stroke-linejoin:miter;stroke-miterlimit:4;stroke-dasharray:none;stroke-opacity:1" />
      <path
         sodipodi:nodetypes="cccc"
         id="path5006"
         d="m 585.42053,404.53979 15.05479,-0.36541 c -6.91605,1.28876 -13.58193,2.32736 -20.31667,3.43481 1.33064,-1.18188 2.4348,-2.44869 5.26188,-3.0694 z"
         style="fill:none;stroke:#ff6600;stroke-width:1;stroke-linecap:butt;stroke-linejoin:miter;stroke-miterlimit:4;stroke-dasharray:none;stroke-opacity:1" />
    </g>
    <path
       inkscape:export-filename="D:\CS_Projects\Captain'sLog\wwwroot\assets\ships\romulan\D'DeridexWarbird.png"
       inkscape:label="D'Deridex"
       inkscape:export-ydpi="99.722229"
       inkscape:export-xdpi="99.722229"
       d="m -103.65997,-103.47098 3.30729,6.142106 15.024556,1.79539 c -2.15591,2.79002 -2.86259,5.652502 0,8.693452 l -14.17411,1.22843 0.66146,1.22842 h 33.26191 l -2.36236,-4.15774 h -1.70089 c -9.06938,-9.133962 0.0131,-3.359062 -9.92187,-12.945678 h -4.9137 l -1.60639,-1.51191 z m -65.77867,3.828236 c -4.21743,6.61651 -3.53038,12.252122 1.06907,17.105252 l 38.4868,-1.87089 0.66818,-1.06908 -10.95804,-0.80181 c -3.01256,-3.57019 -2.52197,-6.821922 0,-9.888972 l 10.55714,-1.20271 v -1.20271 z m 95.166316,-10.915296 -25.32439,0.18899 c -29.012656,-6.67862 -59.566026,2.35798 -90.336316,13.607146 -5.19381,2.78834 -10.13473,5.634152 0,11.906252 32.18099,10.15921 63.22094,29.44673 99.785706,4.53571 h 27.21429 c 13.45948,1.80485 20.50786,7.02895 28.91518,11.52828 -1.97814,-17.48259 -0.82937,-42.324028 -40.25447,-41.766378 z"
       style="fill:none;stroke:#00aa00;stroke-width:1.05833;stroke-linecap:round;stroke-linejoin:round;stroke-miterlimit:4;stroke-dasharray:none;stroke-opacity:1"
       id="path917" />
    <path
       inkscape:label="NX"
       inkscape:export-ydpi="96"
       inkscape:export-xdpi="96"
       sodipodi:nodetypes="cccccccccccccccccccccccccccccc"
       id="path863"
       d="m 575.52064,25.147497 h -42.33333 c -10.13019,2.560391 -0.6508,4.346719 1.41741,6.425594 h 15.59152 l 0.94494,1.039437 h 1.5119 l 6.33111,4.063243 c -0.74893,0.374768 -0.90887,0.970407 -0.95273,1.609577 1.47563,1.475221 3.36504,1.157375 5.07812,1.603616 h 34.27732 l 2.20497,0.902036 1.23612,-0.367496 c 6.92029,3.024396 13.93952,4.069938 21.21452,0 l 1.80407,0.46772 3.90882,-1.770661 10.12283,-0.801809 h 6.11379 l -1.5368,-2.906554 c -7.77368,-1.94862 -12.15605,-5.16898 -25.72469,-4.944488 l -1.73725,-1.837478 c -2.07185,-1.260953 -4.48378,-1.751034 -7.88445,0 -2.31634,0.590215 -5.19983,0.51876 -6.94901,1.770663 l -11.02486,1.570207 -2.6727,1.637027 h -2.93997 v 0.601356 l -13.53051,1.937702 -3.50792,-4.242903 h 9.12057 c 3.06326,0.216583 8.47166,-4.82493 -0.0838,-6.756789 z"
       style="fill:none;stroke:#ff6600;stroke-width:1.05833;stroke-linecap:round;stroke-linejoin:round;stroke-miterlimit:4;stroke-dasharray:none;stroke-opacity:1" />
    <path
       inkscape:export-filename="D:\CS_Projects\Captain'sLog\wwwroot\assets\ships\ufp\SydneyClass.png"
       inkscape:label="Sydney"
       inkscape:export-ydpi="123.24836"
       inkscape:export-xdpi="123.24836"
       sodipodi:nodetypes="cccccccccccccccccccc"
       id="path916"
       d="m 604.60753,91.224537 c 11.72144,0.917748 27.60363,0.03625 33.29339,3.562276 -4.20327,6.831167 -10.10048,11.838097 -19.04438,13.563947 h -28.77206 c -6.47658,1.01765 -9.75357,3.14821 -12.05684,5.6174 h -29.4571 v -3.69926 h -16.30418 c -0.30428,-2.29205 -2.45256,-4.98497 1.09609,-6.43946 6.27115,-0.90756 6.98492,-1.32114 20.55146,-2.87721 l -2.87722,-0.959066 -7.94654,-0.137163 -4.24731,-1.09606 h -5.06937 c -3.29682,0.119764 -6.29377,0.839451 -9.04266,2.055129 l -4.52132,-8.357599 19.86643,0.137163 c -0.63493,-1.985389 0.77229,-2.901078 3.97327,-2.877184 l 52.74878,0.959071 c 1.34058,-2.595056 4.71822,-0.70861 7.80956,0.548016 z"
       style="fill:none;stroke:#ff6600;stroke-width:1.169;stroke-linecap:butt;stroke-linejoin:miter;stroke-miterlimit:4;stroke-dasharray:none;stroke-opacity:1" />
    <g
       inkscape:label="Ambassador"
       id="g868">
      <path
         inkscape:export-ydpi="96"
         inkscape:export-xdpi="96"
         sodipodi:nodetypes="ccccccccccccccccccccccccccccccccccccccc"
         id="path948"
         d="m 406.70237,-94.210566 -1.22842,0.566965 h -0.94494 c -0.35784,-0.4496 -1.21744,-0.684162 -2.45684,-0.755952 l -34.20685,0.188987 c -10.99549,0.40123 -10.4218,1.609612 -10.96131,2.740329 v 2.740326 c 1.16545,1.984366 5.84395,1.626689 9.44941,1.984375 l 0.47247,0.566965 h 5.95312 l 1.98438,1.511904 0.61421,3.118305 -4.29948,0.708705 -2.22061,2.551335 h -2.4096 l 1.32292,1.84264 h 15.875 c 1.58852,0.11535 9.06771,-0.93201 15.30803,7.1343 8.14992,-0.32919 19.86351,0.0543 21.11943,-1.65365 l 1.08668,0.23624 4.44122,-9.21317 -0.8977,-0.992189 0.23624,-0.614211 -0.61421,-0.425225 5.00818,-6.000372 c 14.19291,5.411069 24.63059,-1.337672 36.42745,-3.685267 h 14.55209 l -2.12612,-2.456845 c -9.34116,-1.242173 -18.10629,-3.060375 -28.5372,-3.212798 l -0.49609,-0.779576 h -2.22061 l -0.4016,-0.73233 h -1.74814 c -1.81387,-2.019525 -3.58794,-1.691145 -5.33892,0 h -6.52009 l -0.37797,0.73233 h -8.29185 l -0.89207,1.545106 c -6.19048,0.511226 -11.29922,1.486054 -16.66021,2.352773 z"
         style="fill:none;stroke:#ff6600;stroke-width:1.05833;stroke-linecap:round;stroke-linejoin:round;stroke-miterlimit:4;stroke-dasharray:none;stroke-opacity:1" />
      <path
         inkscape:export-ydpi="96"
         inkscape:export-xdpi="96"
         sodipodi:nodetypes="cccccccccc"
         id="path950"
         d="m 382.91769,-86.683901 0.28348,1.6064 18.56808,-1.41741 c 1.62844,-0.934 3.70541,-1.91521 0.7087,-2.36235 -0.44202,0.39267 -1.02324,0.64615 -1.84263,0.66145 l -9.87462,-0.23623 -0.56697,0.8032 -1.46466,-0.0945 -0.42522,0.89769 z"
         style="fill:none;stroke:#ff6600;stroke-width:1.05833;stroke-linecap:round;stroke-linejoin:round;stroke-miterlimit:4;stroke-dasharray:none;stroke-opacity:1" />
    </g>
    <path
       inkscape:label="Luna"
       inkscape:export-ydpi="96"
       inkscape:export-xdpi="96"
       sodipodi:nodetypes="ccccccccccccccccccccccccccccccccccc"
       id="path1084"
       d="m 360.4003,286.64769 c 15.9622,-3.9397 31.1015,-8.11462 57.83036,-8.97693 l -6.99256,-3.2128 -2.26786,0.0945 -1.79538,-0.66146 -4.8192,-0.18899 v -2.92931 h 4.59708 c 5.60616,-2.03803 9.24865,-0.98912 12.92917,0 h 7.45013 l 1.3031,0.9071 v 1.16947 l -0.79142,0.73916 5.42376,2.10866 16.09944,0.0213 c 1.68248,-1.31081 2.55218,-0.33894 3.64553,0.005 6.19041,0.77626 12.81385,0.38139 18.35747,2.90688 4.88934,0.57245 10.99446,0.63159 13.60933,2.16432 l 0.0113,2.07131 c -2.94456,1.014 -6.38137,1.62982 -10.21272,1.92651 l -18.64251,-0.0321 v 0.66798 h -5.70952 c -3.5391,1.29252 -7.16696,2.14015 -11.39092,0 -5.26058,1.6801 -10.361,2.03492 -15.87265,5.79246 -0.23378,1.144 -0.16477,2.50005 -1.48773,2.88129 h -2.10471 l -0.86425,0.81799 h -3.60827 l -0.85558,-0.49397 h -69.11435 c -2.6783,-0.73302 -4.01058,-2.09812 -4.82185,-3.70788 v -0.96884 c 1.77727,-1.36897 3.90238,-2.55002 7.00502,-3.20292 z"
       style="fill:none;stroke:#ff6600;stroke-width:1.058;stroke-linecap:round;stroke-linejoin:round;stroke-miterlimit:4;stroke-dasharray:none;stroke-opacity:1" />
    <path
       inkscape:label="Challenger"
       inkscape:export-ydpi="96"
       inkscape:export-xdpi="96"
       sodipodi:nodetypes="ccccccccccccccccccccccccc"
       id="path857"
       d="m 587.27338,-98.651787 c 11.41142,1.814098 9.2988,3.793123 0.0945,5.858632 h -9.4494 l 0.85045,3.96875 c 2.44654,1.228422 2.70427,2.456845 3.49628,3.685267 l 13.70163,-0.283482 c 2.72927,-1.474147 7.62177,-0.064 11.71726,0.283482 l 19.93825,3.307292 v 1.41741 c -14.96351,2.239286 -30.87689,5.903377 -40.53795,0.188989 h -14.17411 l -0.28348,2.173364 h 13.70163 c 11.01419,0.862553 11.77945,5.268969 0,5.575147 h -48.00297 c -5.44916,0.0945 -4.59871,-5.827132 0,-5.858629 h 7.18155 l 4.25223,-2.267858 c -3.92541,-0.143734 -5.54169,-1.903855 -6.99256,-3.779763 h 7.27604 c 0.18173,-1.681507 0.89566,-3.134925 2.83482,-4.063243 v -4.157737 h -15.875 c -4.10991,0 -2.871,-6.803572 0,-6.803572 z"
       style="fill:none;stroke:#ff6600;stroke-width:1.05833;stroke-linecap:round;stroke-linejoin:round;stroke-miterlimit:4;stroke-dasharray:none;stroke-opacity:1" />
    <path
       inkscape:label="Niagara"
       inkscape:export-ydpi="96"
       inkscape:export-xdpi="96"
       sodipodi:nodetypes="ccccccccccccccccccccccccccccccccccccccccccccc"
       id="path873"
       d="m 415.53137,146.78929 c 7.04865,2.43492 4.35305,4.49506 0,6.49145 l -39.44804,1.16514 -0.49934,5.49275 1.99737,7.82303 c 10.34334,-0.83342 18.52682,-2.28395 31.62501,-2.33026 l 1.33158,-2.33026 h -1.49803 v -2.99606 l 10.1533,-1.99737 1.49802,-2.33026 h 10.98553 l 0.83224,-1.33157 h 21.63816 l 1.16514,1.33157 h 6.49145 l 1.49803,1.66447 18.6421,2.66316 -0.36634,1.36722 c -16.38419,2.94439 -32.2454,7.66694 -50.73301,3.45976 l -1.99737,3.1625 2.99605,1.33157 -0.66579,1.49803 1.49803,0.83224 -5.82566,11.81776 -1.99737,-0.16645 -0.3329,0.83224 c -7.19474,1.63898 -16.38897,2.18732 -28.46251,1.16514 -4.69284,-4.60888 -9.50527,-9.1199 -18.975,-9.8204 l -1.33158,7.65658 v 5.32631 l 39.11514,1.49804 c 9.11473,2.678 4.79301,4.51623 0,6.325 l -67.24476,1.16513 c -5.56837,0.0899 -3.91186,-8.44731 0,-8.65527 l 13.48224,-0.16645 -2.49671,-4.82697 9.32106,-8.65526 H 355.2774 c 2.13258,-3.1759 5.20695,-5.94816 13.48224,-6.49146 l -10.15329,-8.98816 3.1625,-5.15986 h -15.31316 c -4.37504,-0.0555 -3.82938,-9.09912 0,-9.15461 z"
       style="fill:none;stroke:#ff6600;stroke-width:1.058;stroke-linecap:round;stroke-linejoin:round;stroke-miterlimit:4;stroke-dasharray:none;stroke-opacity:1" />
    <path
       inkscape:label="Springfield"
       inkscape:export-ydpi="96"
       inkscape:export-xdpi="96"
       sodipodi:nodetypes="ccccccccccccccccccccccccccc"
       id="path889"
       d="m 401.22999,228.24043 16.16981,-0.66818 c 5.77963,-2.32224 12.54683,-0.20042 18.97614,0.40091 l 31.80507,4.81085 0.26727,2.00452 h -12.02713 c -12.4915,1.82402 -23.62996,5.40698 -39.42225,2.93997 l -3.87541,0.66817 v 2.40542 c 8.64182,0.62767 15.45657,1.42144 20.17885,2.40543 l -1.87089,4.40995 c -28.64055,1.11042 -47.0386,0.40363 -53.58754,-2.40543 5.85064,-1.48121 7.88,-3.194 24.72243,-4.00904 l 0.13364,-3.0736 h -10.95805 c -1.32839,-2.17566 -4.06248,-3.34724 -7.88445,-3.74177 h -21.5152 c 0.41667,-2.20189 1.88121,-3.7052 3.34087,-5.21176 l -2.93997,-2.40543 h -23.92062 v -5.21175 h 15.23436 l 1.73726,-0.93545 c 14.55579,0.53454 19.33249,1.06908 28.99874,1.60362 l 15.7689,0.53454 c 3.36955,1.38089 2.76911,2.76179 -0.26727,4.14268 z"
       style="fill:none;stroke:#ff6600;stroke-width:1.058;stroke-linecap:round;stroke-linejoin:round;stroke-miterlimit:4;stroke-dasharray:none;stroke-opacity:1" />
    <path
       inkscape:label="Freedom"
       inkscape:export-ydpi="96"
       inkscape:export-xdpi="96"
       sodipodi:nodetypes="cccccccccccccccccccccccc"
       id="path905"
       d="m 473.82523,-41.207947 v 2.27179 c -18.281,2.368042 -35.19024,4.177224 -43.96584,2.672696 l -17.63979,9.621703 1.33635,0.801809 -0.4009,1.737251 h 3.60813 c 5.30518,2.244329 7.44669,4.664417 0,7.617181 l -6.5481,0.133635 3.0736,2.939965 -8.41899,0.133635 -7.08264,-3.207235 h -45.30219 c -4.04253,-0.01299 -3.12641,-8.987715 0,-9.087163 l 35.81412,-0.133635 2.00452,-1.202713 3.0736,0.133635 16.97162,-12.828937 -0.35199,-1.313647 c 3.97145,-1.209999 9.66358,-1.928374 16.12089,-2.428127 l 5.34539,-1.870886 h 17.23888 l 2.93997,1.469982 c 20.84253,1.723402 15.8798,1.763852 22.18337,2.539061 z"
       style="fill:none;stroke:#ff6600;stroke-width:1.05833;stroke-linecap:butt;stroke-linejoin:miter;stroke-miterlimit:4;stroke-dasharray:none;stroke-opacity:1" />
    <path
       inkscape:label="Cheyenne"
       inkscape:export-ydpi="96"
       inkscape:export-xdpi="96"
       sodipodi:nodetypes="cccccccccccccccccccccccccccccc"
       id="path921"
       d="m 476.07005,36.166581 v 2.138156 c -22.42603,4.456015 -33.83911,4.928627 -39.55588,3.340867 -3.10033,1.38979 -6.437,0.888863 -9.2208,4.810852 2.36811,1.795917 -0.65916,2.12037 -1.87089,2.939966 l -7.08264,0.801809 c 1.36052,1.344405 0.73687,2.027418 0,2.672694 l -11.49259,1.069078 h -54.92389 v -4.81085 h 7.88445 l 2.00454,-1.737254 h 39.15497 l 5.21175,-1.336347 c 4.3654,-2.049066 6.94901,-4.98903 7.75082,-8.819893 -2.06335,-8.883017 -9.27898,-8.398235 -14.96709,-10.690781 h -39.42225 l -0.80181,-1.336349 h -7.21628 v -5.479024 l 60.93745,0.534538 5.87993,1.069078 c 0.43884,1.024534 1.56135,2.049067 0,3.073601 l 7.61718,1.202711 c 1.25455,0.805535 3.32852,1.529127 1.20271,2.672697 l 8.8199,5.078121 2.67269,-1.469983 c 3.60675,-1.120575 7.53548,-0.631257 11.49259,0 l 2.40543,1.069078 c 22.89723,2.742114 17.96257,2.391797 23.51971,3.207235 z"
       style="fill:none;stroke:#ff6600;stroke-width:1.05833;stroke-linecap:butt;stroke-linejoin:miter;stroke-miterlimit:4;stroke-dasharray:none;stroke-opacity:1" />
    <path
       inkscape:label="Crossfield"
       inkscape:export-ydpi="96"
       inkscape:export-xdpi="96"
       sodipodi:nodetypes="ccccccccccccccccccccccc"
       id="path862"
       d="m 653.50742,282.10168 c 1.46468,-0.11638 2.63847,-1.91746 4.6537,1.15475 l 25.78424,2.09755 -1.94004,1.4866 -12.08435,0.26524 -10.85895,1.10382 c -2.35119,1.42888 -4.69162,1.97068 -7.0022,0.0523 l -0.84191,1.49992 -9.18512,-1.07244 -4.97153,2.41082 c -1.12615,1.47792 -2.41189,2.90047 -2.80194,4.63372 l -25.1612,3.12686 -11.80482,-0.14323 c -1.11179,-1.30838 -4.09342,-1.84211 -6.97222,-2.41845 l -61.08143,-0.87838 -2.86591,-1.40763 -27.99381,-1.02608 6.33252,-1.43331 17.57664,-0.33589 3.56057,0.72964 64.81757,-1.54743 10.84896,-0.28023 c 16.87537,-3.8516 33.73196,-7.75185 51.99123,-8.01818 z"
       style="fill:none;stroke:#ff6600;stroke-width:1.05833;stroke-linecap:round;stroke-linejoin:round;stroke-miterlimit:4;stroke-dasharray:none;stroke-opacity:1" />
    <path
       inkscape:label="Shepard"
       inkscape:export-ydpi="96"
       inkscape:export-xdpi="96"
       sodipodi:nodetypes="cccccccccccccccccccccc"
       id="path864"
       d="m 506.90011,257.62057 17.24028,-3.15643 2.23208,0.96197 c 22.21463,-2.18968 44.4076,-2.59161 66.59526,-2.55761 5.8191,1.04126 10.52434,2.89699 14.33169,5.40927 l -7.86327,0.83949 2.03378,1.89446 c 10.94322,-0.90424 21.66166,0.013 32.33112,1.32716 4.29941,-1.51748 8.30913,-0.68755 12.34101,-0.0372 l 31.17993,3.74391 -12.78296,5.64123 c -22.52961,2.11668 -44.96664,3.22945 -66.92834,-0.81204 l -9.68967,-2.73526 -6.92398,0.47693 c -0.028,-2.27272 -1.9551,-4.02767 -3.6687,-5.84084 l 4.68057,-0.50414 0.0204,-1.68256 -5.02952,-1.55685 -51.60292,-0.25214 -2.25702,1.09449 -13.2667,-0.7219 z"
       style="fill:none;stroke:#ff6600;stroke-width:1.05833;stroke-linecap:butt;stroke-linejoin:miter;stroke-miterlimit:4;stroke-dasharray:none;stroke-opacity:1" />
    <path
       inkscape:label="Walker"
       inkscape:export-ydpi="96"
       inkscape:export-xdpi="96"
       sodipodi:nodetypes="ccccccccccccccccccccccccccccccccc"
       id="path882"
       d="m 580.304,218.30139 -3.26729,4.37735 -8.54845,0.15685 -0.96293,2.26027 h 15.2381 c 1.64166,0.77069 3.37376,1.50872 2.22948,3.28576 l -3.73988,-0.17902 -0.43006,2.40039 -8.1495,-0.23253 -5.90706,2.20029 c -20.44261,0.13244 -42.65083,0.94639 -64.83889,1.75256 l -0.58152,3.86864 c 28.56091,0.231 54.72153,1.62596 81.22126,2.85648 14.79618,0.84939 24.98343,0.2192 35.28671,-0.37374 10.65289,-0.60243 9.08069,-3.32914 9.15783,-5.76925 -5.43524,-1.56128 -11.31846,-2.68532 -18.5463,-2.49698 l 0.28832,-1.73388 11.80926,-3.9997 23.64674,0.68784 c 7.81576,3.69753 13.89109,2.57692 18.60467,-2.31352 l 19.94903,-2.96543 0.43492,-2.80126 c -3.37949,-0.50895 -6.74269,-2.3604 -10.10524,-4.26559 l -1.47798,0.65029 c -13.9284,-2.29489 -27.92284,-4.30873 -42.59068,-3.45693 l -2.52104,-1.50068 -12.16636,0.38697 -2.79801,-0.70217 -12.43523,0.51734 -3.11228,3.16971 -6.68125,-0.0811 -5.128,4.08076 z"
       style="fill:none;stroke:#ff6600;stroke-width:1.05833;stroke-linecap:butt;stroke-linejoin:miter;stroke-miterlimit:4;stroke-dasharray:none;stroke-opacity:1" />
    <path
       inkscape:label="Constitution"
       inkscape:export-ydpi="300"
       inkscape:export-xdpi="300"
       sodipodi:nodetypes="cccccccccccccccccccccccccccccccccccccccccccccccc"
       id="path867"
       d="m 408.82849,95.438984 h -32.69494 l -0.94494,-0.66146 c -5.29219,1.16538 -27.24852,0.83286 -15.875,3.49628 l 0.66146,1.13393 15.11905,0.0945 1.03943,-0.56696 h 8.97693 l 1.32292,1.228416 20.97768,9.5439 -14.64658,1.98437 c -1.33037,1.02168 -2.63025,2.06078 -2.74033,3.77977 l 0.47248,0.75595 c 13.17176,1.2786 14.95324,3.01281 14.93006,4.8192 10.4517,1.29087 21.11015,3.1268 29.67112,-0.56697 l 2.64584,-1.13393 v -7.55952 l -2.74033,-0.94494 v -3.87426 l 8.12648,-4.53571 3.87427,-0.28348 c 18.30559,7.63287 1.82723,3.54835 24.37947,-0.94494 h 15.02455 c 2.03025,-1.426586 1.12079,-2.265226 0.75594,-3.212796 h -9.1659 c -4.85574,-0.12012 -8.68918,-1.43291 -12.85121,-2.36235 h -2.07886 l -2.55135,-1.79539 c -1.77282,-0.67981 -3.33806,-2.39748 -5.57514,-0.75595 h -1.98438 l 0.20164,0.75256 c -1.28443,0.30313 -2.6678,-0.28424 -3.84,1.02892 -3.15854,2.3601 -8.61972,2.68846 -13.84304,3.2267 v -0.75595 H 424.5145 l 0.47247,2.834816 0.94494,0.28348 -8.78794,8.12649 -4.34673,0.56697 -12.94568,-8.59896 h 3.96875 l 1.80759,-1.043616 h 3.57857 l 0.5218,0.521806 h 8.36064 c 3.66281,-1.355966 5.57501,-2.853866 0,-4.958846 h -8.22099 z"
       style="fill:none;stroke:#ff6600;stroke-width:1.05833;stroke-linecap:butt;stroke-linejoin:miter;stroke-miterlimit:4;stroke-dasharray:none;stroke-opacity:1" />
    <g
       inkscape:label="California"
       inkscape:export-ydpi="300"
       inkscape:export-xdpi="300"
       transform="matrix(1.5888408,0,0,1.6189539,119.04713,26.806616)"
       style="stroke-width:0.659878;stroke-miterlimit:4;stroke-dasharray:none"
       id="g872">
      <path
         sodipodi:nodetypes="ccccccccccccccccccccccc"
         id="path866"
         d="m 165.64029,183.28008 v 1.13589 c 5.03347,1.28472 10.34263,1.65047 15.63526,2.07134 -1.94014,2.04551 -2.56853,4.67401 -5.94674,6.08038 H 166.843 l -1.98182,-1.1442 h -6.83807 l -5.16539,1.38406 h -11.93986 c -0.36577,0.15446 -0.85084,0.1747 -0.53454,1.09649 l 4.33561,2.50317 H 189.16 c 2.43771,-0.0794 2.53917,-3.34891 0,-3.57225 h -4.27631 c -0.79589,-0.22227 -0.66881,-0.72143 -0.60135,-1.20271 l 4.37654,-4.37654 h 3.70836 c 1.68511,-0.37745 2.98647,-0.88282 3.34087,-1.70384 5.85422,0.0935 9.75642,-0.49629 13.89801,-1.00226 v -1.1359 c -4.01333,-1.32244 -11.08491,-1.39379 -16.83798,-2.00452 l -0.60135,-0.73499 c -9.77093,-0.13443 -18.97048,0.34821 -26.5265,2.60588 z"
         style="fill:none;stroke:#ff6600;stroke-width:0.659878;stroke-linecap:round;stroke-linejoin:round;stroke-miterlimit:4;stroke-dasharray:none;stroke-opacity:1" />
      <path
         id="path868"
         d="m 183.01281,187.2223 h 2.17156 l -3.10701,3.90882 h -2.23838 z"
         style="fill:none;stroke:#ff6600;stroke-width:0.659878;stroke-linecap:round;stroke-linejoin:round;stroke-miterlimit:4;stroke-dasharray:none;stroke-opacity:1" />
    </g>
    <path
       inkscape:label="Parliament"
       inkscape:export-ydpi="300"
       inkscape:export-xdpi="300"
       sodipodi:nodetypes="cccccccccccccccccccccccccccccccc"
       id="path972"
       d="m 385.93009,366.14386 v 0.63477 l 0.57062,0.32946 v 0.90667 l -0.55258,0.55256 v 0.51651 l 10.47228,0.90202 c -1.92386,2.5917 -4.37153,5.06987 -9.12057,7.04924 h -40.79201 c -3.06227,0.19864 -2.67061,2.53513 -2.53906,4.71062 0.57631,1.43014 1.15535,2.85559 2.33861,3.24064 h 71.55875 c 7.9302,-0.76149 -4.25344,-7.7644 -6.57369,-8.03809 h -2.33849 l 0.43025,-1.26357 h 14.36556 c 0.97108,0.19662 0.99096,-0.31732 0.90803,-0.90805 v -1.84605 c 1.51207,-2.74511 4.42007,-1.78937 6.92881,-1.89215 l 0.83636,0.36489 h 15.13469 l 1.13401,-0.45162 18.14547,-0.41986 0.89998,-1.07083 c 27.38315,-2.62008 2.85997,-3.65736 -3.85207,-5.23777 h -12.46167 c 0.63886,-0.74421 0.46874,-1.41651 -0.93904,-1.97879 h -1.43657 c -1.59586,-2.0349 -19.1853,-0.66696 -19.71109,0.0406 -6.60007,-0.3561 -21.20263,1.61287 -31.96744,2.46681 l -0.5178,0.51782 z"
       style="fill:none;stroke:#ff6600;stroke-width:1.05833;stroke-linecap:round;stroke-linejoin:round;stroke-miterlimit:4;stroke-dasharray:none;stroke-opacity:1" />
    <rect
       inkscape:export-filename="D:\CS_Projects\Captain'sLog\wwwroot\assets\ships\borg\BorgCube.png"
       inkscape:label="Cube"
       inkscape:export-ydpi="214.50981"
       inkscape:export-xdpi="214.50981"
       ry="0.9608053"
       y="-118.43794"
       x="29.442804"
       height="67.619186"
       width="67.619186"
       id="rect848"
       style="fill:none;stroke:#00ff00;stroke-width:1.05833;stroke-linecap:round;stroke-linejoin:round;stroke-miterlimit:4;stroke-dasharray:none" />
    <circle
       inkscape:export-filename="D:\CS_Projects\Captain'sLog\wwwroot\assets\ships\borg\BorgSphere.png"
       inkscape:label="Sphere"
       inkscape:export-ydpi="284.18463"
       inkscape:export-xdpi="284.18463"
       r="25.390606"
       cy="3.3254633"
       cx="66.092667"
       id="path850"
       style="fill:none;stroke:#00ff00;stroke-width:1.05833;stroke-linecap:round;stroke-linejoin:round;stroke-miterlimit:4;stroke-dasharray:none" />
    <path
       inkscape:export-filename="D:\CS_Projects\Captain'sLog\wwwroot\assets\ships\romulan\RomulanBird-of-Prey.png"
       inkscape:label="T'Liss"
       inkscape:export-ydpi="135.53108"
       inkscape:export-xdpi="135.53108"
       sodipodi:nodetypes="cccccccccccccccc"
       id="path897"
       d="m -91.997254,-23.544322 -19.109766,7.21627 h -52.38482 c -2.3954,-0.0966 -2.06933,0.69954 -1.67044,1.67044 l 4.71133,8.16026 h -4.64453 l 3.26636,5.65748002 c 36.72733,2.16891998 74.354146,9.23508998 108.986856,0 l 3.01037,-5.21413002 -28.00008,-4.79502 12.42804,-12.16076 h 12.02713 c 7.29954,0.0536 11.23693,-9.90519 0,-11.49259 l -72.697306,1.60361 2.80632,8.55263 z"
       style="fill:none;stroke:#00aa00;stroke-width:1.05833;stroke-linecap:round;stroke-linejoin:round;stroke-miterlimit:4;stroke-dasharray:none;stroke-opacity:1" />
    <path
       inkscape:export-filename="D:\CS_Projects\Captain'sLog\wwwroot\assets\ships\klingon\D7BattleCruiser.png"
       inkscape:label="D7"
       inkscape:export-ydpi="105.98"
       inkscape:export-xdpi="105.98"
       sodipodi:nodetypes="cccccccccccccccccccccccccccccccc"
       id="path934"
       d="m -795.63989,56.885415 -22.30059,1.322917 c 2.82947,3.458913 6.90628,6.450079 7.9375,10.583336 l -24.37945,-0.188989 c -3.18744,3.772943 -2.85641,7.69249 0,11.71726 h 52.34969 c 1.10349,-3.517208 2.54931,-7.011593 0,-10.77232 h -3.02382 l -0.60494,-2.257681 11.18828,-2.089044 13.79614,0.188986 5.48066,-3.212798 c 13.22749,-2.932252 28.72619,-1.88988 43.08928,-2.83482 l 0.75595,1.511903 4.7247,0.377979 c 6.78223,7.307525 26.2965,10.277601 20.03274,-4.157739 l 2.26786,-1.700893 v -3.401785 h -3.77976 c -8.43191,-4.506771 -10.92684,-3.26208 -11.33929,0 v 1.322917 l -11.43014,3.062697 c -6.47847,1.57835 -27.373,-0.550284 -41.67551,-0.983829 l -4.53572,-2.456847 -13.22917,0.377979 -2.83483,-3.023812 -4.3467,-0.755952 v -2.834819 h -19.65476 v 5.102677 c 1.61276,1.063706 3.73128,1.910654 3.68525,3.685267 z"
       style="fill:none;stroke:#225500;stroke-width:1.05833;stroke-linecap:round;stroke-linejoin:round;stroke-miterlimit:4;stroke-dasharray:none;stroke-opacity:1" />
    <path
       inkscape:export-filename="D:\CS_Projects\Captain'sLog\wwwroot\assets\ships\klingon\K'VortClassBird-of-Prey.png"
       inkscape:label="B'Rel"
       inkscape:export-ydpi="226.44"
       inkscape:export-xdpi="226.44"
       sodipodi:nodetypes="ccccccccccccccccccccccccccccccc"
       id="path951"
       d="m -766.10736,-8.4099703 -5.85862,-0.09449 c -1.56841,-1.8223757 -2.70313,-4.1326527 -5.19718,-4.9136897 h -2.45685 c -1.27245,-1.744499 -3.01462,-2.976573 -5.66965,-3.212798 l -0.25521,-0.952511 h -14.76934 l -0.25077,0.935951 -5.98582,0.772512 v 3.307291 l -9.87777,2.6467437 v 4.723793 l 3.40989,0.913684 c 5.411,4.97299803 19.69449,18.7498973 23.28781,17.7016433 l 1.40983,5.261591 5.39374,5.227248 c 3.11966,2.900546 4.02104,0.844792 5.38615,0.755952 l 6.5201,-2.078869 0.0945,-1.039434 h 8.88245 l 0.53407,1.993188 h 4.19063 l -0.85773,-3.201122 h -12.37144 l -6.99257,-2.38284 -1.82578,-6.813959 1.24497,-2.1563573 -7.37852,-12.779949 h 23.36187 c 7.22113,1.432622 14.39074,2.794091 16.44197,-2.912681 -7.61804,-5.3723027 -14.02435,-3.5953697 -20.41073,-1.700897 z"
       style="fill:none;stroke:#225500;stroke-width:1.05833;stroke-linecap:round;stroke-linejoin:round;stroke-miterlimit:4;stroke-dasharray:none;stroke-opacity:1" />
    <path
       inkscape:export-filename="D:\CS_Projects\Captain'sLog\wwwroot\assets\ships\klingon\Vor'ChaClassAttackCruiser.png"
       inkscape:label="Vor'Cha"
       inkscape:export-ydpi="124.08"
       inkscape:export-xdpi="124.08"
       sodipodi:nodetypes="ccccccccccccccccccccccccccccccccccccccccccccccccccccccccccccccccccccc"
       d="m -806.27,-101.81733 3.96875,2.882065 20.78871,-0.28348 1.98437,2.55134 h 2.26785 l 1.79538,-2.17337 15.40254,0.47247 0.47133,-0.57385 h -0.83521 l 1.23613,-3.073605 h 5.34538 l 0.12141,0.45309 h 2.11696 l 0.63429,2.367125 h -2.87266 l 0.81158,0.81157 h 1.49363 l 1.14842,1.98915 9.50894,-0.70985 0.60134,-1.63703 h 2.67272 l 0.43431,-0.60136 3.80857,0.16705 1.00227,1.90429 12.82893,0.80181 m 0,0 v 2.80633 l -10.55714,0.93545 -1.28439,2.22463 -9.54003,-0.88829 0.39436,-1.47173 -10.01606,-0.26552 -16.89561,2.98173 v 1.60639 l -8.59896,-0.56696 h -3.49628 l -0.37798,-1.22842 h -6.89806 v 1.13393 h -4.06326 l -1.03941,-1.22843 h -15.68604 c 0.13095,1.38492 1.35611,2.551 4.15774,3.40179 l 0.69729,1.20774 5.25584,0.0207 c 7.07366,2.88529 8.26842,5.455632 -4.5357,7.276038 h -24.096 l -1.08667,1.086681 h -8.92969 l -4.79799,-1.285618 -1.2629,0.338391 -7.30088,-1.956266 v -3.474856 l 6.75502,-1.81001 1.78612,1.03122 5.26988,-1.41206 h 10.51207 c 1.40449,-0.65092 3.72183,-0.99755 3.68649,-2.12841 l -1.10768,-1.91859 h -4.46871 v -5.38492 l 4.11049,-4.11049 1.39227,-2.411465 h -2.57345 c 1.54019,-1.44 0.88469,-2.88 1.15755,-4.32 l 5.26807,1.01457 h 12.94567 c 2.6127,1.14968 3.86466,2.29935 3.44902,3.44903 H -806.27"
       style="fill:none;stroke:#225500;stroke-width:1.05833;stroke-linecap:round;stroke-linejoin:round;stroke-miterlimit:4;stroke-dasharray:none;stroke-opacity:1"
       id="path971" />
    <path
       inkscape:export-filename="D:\CS_Projects\Captain'sLog\wwwroot\assets\ships\cardassian\GalorClass.png"
       inkscape:label="Galor"
       inkscape:export-ydpi="105.00266"
       inkscape:export-xdpi="105.00266"
       sodipodi:nodetypes="ccccccccccccccccccccccccccccccccccc"
       id="path988"
       d="m -358.69939,-91.848216 c -10.4732,0.52467 -21.58113,-0.64326 -31.37202,1.70089 v 2.45685 l 27.78125,-0.56696 1.13392,6.99256 38.93154,1.13393 15.875,2.26785 9.07142,3.96875 h 18.89882 c 8.20915,-2.59399 11.62166,-5.02809 12.28423,-7.37053 8.19251,-0.57987 13.70573,-1.56569 13.60714,-3.40179 1.53857,-1.45466 2.0906,-3.27927 -0.37798,-6.23661 l 16.81994,-1.13392 v -2.26786 l -9.26041,-0.56697 c -1.13622,-1.72961 -10.89032,-5.632124 -13.41816,-0.75595 l -4.34671,0.37798 -1.51191,4.34672 h -2.64583 l -3.5908,-3.96875 -6.80354,0.18899 c -1.26368,-1.06981 -2.00749,-2.29557 -5.66965,-2.64583 l -2.45685,2.45684 -2.26787,0.18899 -1.32292,3.59078 h -2.45684 l -0.75594,-2.07887 -29.10417,0.56696 -1.51191,2.45684 -10.39434,0.37798 -2.26785,-1.88988 -3.4018,-0.18899 -1.51191,2.07887 -14.93004,0.75595 z"
       style="fill:none;stroke:#d4aa00;stroke-width:1.05833;stroke-linecap:round;stroke-linejoin:round;stroke-miterlimit:4;stroke-dasharray:none;stroke-opacity:1" />
    <path
       inkscape:export-filename="D:\CS_Projects\Captain'sLog\wwwroot\assets\ships\dominion\Jem'HadarAttackShip.png"
       inkscape:label="Jemhadar Attack Ship"
       inkscape:export-ydpi="180.24001"
       inkscape:export-xdpi="180.24001"
       sodipodi:nodetypes="ccccccccccccccccccccccc"
       id="path1006"
       d="m -511.99007,-22.219 c -1.23294,-1.59793 -7.59758,-4.22839 -28.73147,-5.7463 l -3.20723,3.60814 h -1.06907 l 0.53453,-2.40543 -1.33635,-2.27179 h -2.2718 l -1.73725,-2.00452 -9.48806,-0.13363 -1.87087,1.60361 c -11.822,-0.0646 -25.47078,3.6461 -39.95682,9.08717 l 16.57072,-0.93545 c 8.24608,2.17706 15.97342,4.90991 26.59332,4.54359 v 1.46998 h -25.12335 c -10.64479,3.92377 11.06989,6.0273196 27.6624,8.4189896 h 12.16078 c 8.44323,0.56752 9.81267,-1.74688 8.68624,-5.0781196 -0.41417,-3.22331 -4.8721,-3.32188 -9.08716,-3.60814 l -2.93995,-0.13364 3.47448,-1.73725 2.2718,-3.60814 c 10.568,-2.38259 21.02203,0.47406 28.86511,-1.06907 z"
       style="fill:none;stroke:#ff00ff;stroke-width:1.05833;stroke-linecap:round;stroke-linejoin:round;stroke-miterlimit:4;stroke-dasharray:none;stroke-opacity:1" />
    <path
       inkscape:export-filename="D:\CS_Projects\Captain'sLog\wwwroot\assets\ships\dominion\Jem'HadarBattleCruiser.png"
       inkscape:label="Jemhadar Battlecruiser"
       inkscape:export-ydpi="90.00386"
       inkscape:export-xdpi="90.00386"
       sodipodi:nodetypes="ccccccccccccccccccccccccccccccccccccccccccc"
       id="path1022"
       d="m -575.65772,-98.27381 v 1.88989 c 27.27728,-1.02446 54.55456,4.59182 81.83184,6.99255 l 0.18899,2.26786 25.51338,0.18899 -3.59077,2.26786 c -14.01371,2.52233 -29.14942,4.08296 -46.68007,3.59077 l -0.37796,2.64583 c 8.4895,3.36246 17.36679,2.84693 26.08035,3.96875 -8.73938,1.87058 -14.29771,6.36086 -26.83631,5.10268 l 7.7485,4.91369 23.24556,1.32292 c 3.13678,1.36347 -6.30794,4.18265 -33.6399,9.07143 l -31.18302,0.18899 c -12.58139,-2.43103 -26.90891,-3.86427 -36.28573,-8.12649 l 0.189,-1.7009 c 15.18535,-1.50327 28.91468,-1.25932 42.9003,-1.32291 l -4.34673,-2.07887 c -8.76119,0.49787 -17.15289,1.47079 -27.59226,-0.18899 l -26.08035,-5.10268 c -0.074,-0.96719 -4.71703,-1.36325 -12.85121,-1.32291 -1.70311,-1.32341 0.64104,-1.74744 3.40181,-2.07888 l 9.4494,-0.18898 0.18897,-4.7247 -16.81993,-0.37798 c -33.46205,-2.26786 -27.4597,-4.53571 0.18899,-6.80357 l 8.50447,0.56696 -0.75596,-2.26785 -7.37053,-5.48065 -2.83482,-0.56698 c -0.23535,-2.70084 -5.02182,-1.33209 -6.61459,-3.59077 -4.89773,-0.244 -10.22778,-0.70417 -16.63096,-1.7009 l -0.56695,-3.21278 c 8.80428,-2.35699 16.43244,-2.83219 24.00149,-3.21281 l 2.26785,-4.15774 h 3.21281 l -0.18899,2.07888 10.01635,0.189 1.7009,-2.07889 c 30.77857,2.96416 35.52976,9.44941 35.52976,9.44941 l 2.83483,1.13392 v 2.26785 z"
       style="fill:none;stroke:#ff00ff;stroke-width:1.05833;stroke-linecap:round;stroke-linejoin:round;stroke-miterlimit:4;stroke-dasharray:none;stroke-opacity:1" />
    <path
       inkscape:export-filename="D:\CS_Projects\Captain'sLog\wwwroot\assets\ships\ferengi\D'KoraMarauder.png"
       inkscape:label="D'Kora"
       inkscape:export-ydpi="109.60538"
       inkscape:export-xdpi="109.60538"
       sodipodi:nodetypes="cccccccccccccccc"
       id="path1038"
       d="m 265.17857,-83.265031 -0.80181,-2.13815 c -6.0385,-0.43013 -9.65478,-0.61803 -13.22984,-0.80181 -2.61183,-0.28249 -3.07586,-1.10192 -3.74178,-1.87089 -4.32506,0.62573 -9.03607,1.44444 -12.42803,1.60362 l -34.74504,-9.6217 -2.27179,-2.13816 h 5.34539 v -1.870889 l -8.81989,-0.93544 c -33.10684,4.968519 -41.85608,19.450809 -43.69856,22.851549 30.33695,6.37097 59.91551,3.26202 89.80255,4.00904 0.70686,-0.89116 -5.35566,-2.07663 -10.15624,-3.20724 l 11.75986,-0.26726 c 11.76702,0.30977 24.80256,0.2571 41.82768,-0.93545 -0.93686,-1.95492 -11.78648,-3.17557 -18.8425,-4.67722 z"
       style="fill:none;stroke:#803300;stroke-width:1.05833;stroke-linecap:round;stroke-linejoin:round;stroke-miterlimit:4;stroke-dasharray:none;stroke-opacity:1" />
    <path
       inkscape:export-ydpi="300"
       inkscape:export-xdpi="300"
       sodipodi:nodetypes="ccccccccccccccccccccccccccc"
       id="path1054"
       d="m 589.19954,-40.076272 -8.68626,-1.20272 c -1.34373,-2.61338 -4.24242,-2.11685 -6.5481,-2.80633 l -6.81538,0.13364 c -5.5705,2.55185 -10.7533,5.25282 -14.03165,8.68626 l -3.74177,-0.13364 -12.56167,-4.81085 -3.47451,0.13364 -3.4745,6.5481 c -1.60362,1.15817 -1.60361,2.5836 0,4.27631 l 3.20723,6.01357 4.14268,0.13363 6.37323,-3.67958 c 3.69864,3.77589 6.73276,0.90656 9.93022,-0.32946 l 10.95805,4.94448 14.69982,-0.26727 c 2.15561,-0.43229 5.34944,-0.15695 6.68174,-0.13363 v -1.33635 c -1.67012,-0.22471 -3.45237,0.31183 -5.7463,0 l -5.21175,-2.40542 -2.53906,0.93544 v -2.27179 l 21.64883,0.53454 c 4.05402,2.55862 8.74144,1.15851 13.49711,-0.66818 15.49148,-3.87894 10.66861,-6.21679 0.53454,-8.15172 -1.80526,-1.73055 -1.15057,-4.16394 -6.28084,-4.94448 z"
       style="fill:none;stroke:#ff6600;stroke-width:1.05833;stroke-linecap:round;stroke-linejoin:round;stroke-miterlimit:4;stroke-dasharray:none;stroke-opacity:1" />
    <path
       inkscape:label="Akira"
       sodipodi:nodetypes="cccccccccccccccccccccccc"
       id="path1285"
       d="m 679.23502,-93.637695 3.41066,2.89388 -19.22364,8.888346 -0.10335,1.963706 -11.98893,-0.723471 -1.75699,1.653645 v 4.134115 l 4.23746,6.201172 62.42513,0.723471 2.58381,-1.136883 7.95817,-0.206705 c 4.25417,-2.336142 8.49842,-4.673945 0.31006,-9.095052 l -37.10368,-1.860352 5.89113,-4.857583 11.3688,-0.103354 c 16.72299,2.416681 18.79008,4.811773 16.63981,6.407877 19.08261,3.947379 17.15878,17.080393 78.13476,1.343589 -19.77354,-15.254719 -58.02277,-12.670846 -93.01758,-13.229167 l -1.65364,-1.033529 2.27377,-1.550294 -1.03354,-1.963703 -6.40786,-0.930177 -17.67335,-0.310057 z"
       style="fill:none;stroke:#ff6600;stroke-width:1;stroke-linecap:butt;stroke-linejoin:miter;stroke-miterlimit:4;stroke-dasharray:none;stroke-opacity:1" />
    <path
       inkscape:label="Centaur"
       sodipodi:nodetypes="ccccccccccccccccccccccccccccccc"
       id="path2377"
       d="m 709.31071,-39.584148 1.18856,1.808676 c 2.38599,0.953685 4.44984,2.230465 5.06428,4.960937 l -3.35896,5.529379 h -56.12061 c -3.39578,0.105507 -6.78877,0.214641 -8.83666,2.067057 h -3.3073 l -0.25839,1.705322 2.89419,-0.05191 1.2916,3.875961 c 2.7525,-1.207034 5.6988,-0.882057 8.57829,-1.085205 l 85.00314,-0.212231 c 7.07811,-3.053841 3.87661,-4.950133 0,-6.770402 l -14.67914,0.08505 4.76539,-4.061542 6.71319,0.36133 1.25593,-1.014393 c 7.97288,4.479122 15.67703,2.105514 23.36927,-0.572014 l 23.67055,0.0011 -1.36181,-2.191544 c -7.52818,-2.332249 -17.88472,-3.245098 -29.248,-3.652713 l -1.26561,-1.724927 -2.99926,0.109066 c -1.4336,-1.23003 -3.15362,-1.365104 -5.27195,0.02254 l -14.986,-0.126387 -1.30046,0.548572 -6.0979,-0.0418 -2.15114,-1.273357 -4.65114,-0.01963 -1.00788,1.690071 z"
       style="fill:none;stroke:#ff6600;stroke-width:1;stroke-linecap:butt;stroke-linejoin:miter;stroke-miterlimit:4;stroke-dasharray:none;stroke-opacity:1" />
    <path
       inkscape:label="Constellation"
       sodipodi:nodetypes="ccccccccccccccccccccccccccccccccccccccccc"
       id="path3357"
       d="m 723.69581,28.383158 -11.19105,-6.487735 6.06576,-0.009 c 5.79999,-1.868498 6.84951,-3.803064 0,-5.847486 l -39.69089,0.717307 c -3.82935,0.298698 -8.0971,0.247738 -11.03344,1.258681 v 1.899901 c 3.97311,1.186155 7.68681,1.085189 11.47863,1.371819 l 20.31653,-0.103084 5.78207,5.837989 -1.67582,3.437311 0.0764,2.265415 1.90561,3.724347 -5.98458,5.489958 -23.16626,0.399619 c -2.99599,0.241123 -5.99237,0.214965 -8.98728,1.182576 l -0.0791,2.27711 c 3.79608,1.49207 7.10694,1.295274 10.53536,1.507691 l 38.51423,0.16237 c 9.71531,-1.171278 9.42838,-5.710153 0.87719,-5.702077 l -4.02801,0.07945 6.35215,-4.028868 1.2438,0.948224 4.09266,0.06704 1.53233,-1.610058 5.48122,0.06499 0.14541,-0.511786 -0.80486,-0.656545 -3.06954,-0.06855 2.62911,-1.24627 7.30846,0.208452 c 7.91136,6.510689 15.95518,4.618634 24.04369,-0.108588 l 14.61466,-1.117806 2.69602,-5.41202 c -24.32012,-0.518121 -29.56806,-9.23588 -45.52939,0.28648 l -0.87913,-1.460333 -2.41171,0.0036 -0.50996,1.096978 -1.02486,-1.167792 -4.01968,-0.140229 z"
       style="fill:none;stroke:#ff6600;stroke-width:1;stroke-linecap:butt;stroke-linejoin:miter;stroke-miterlimit:4;stroke-dasharray:none;stroke-opacity:1" />
    <path
       inkscape:label="Daedalus"
       sodipodi:nodetypes="ccccccccccccccccccccc"
       id="path1049"
       d="m 745.58565,82.646829 h -97.25504 v 11.05875 h 79.06493 v 3.82406 h -65.42235 v 22.737631 h 59.32453 l 4.96094,-3.20394 h 6.40789 c 1.3109,-3.88638 4.21592,-7.48291 1.5503,-12.09229 h 33.27961 c 26.21746,28.82645 60.03502,-11.847991 29.89926,-29.874171 l -3.23421,-0.0982 c -4.59422,-3.49613 -9.39507,-4.16819 -14.57278,0.31006 h -4.03074 c -11.37678,7.66675 -10.71243,14.93213 -10.7487,22.22087 h -28.62876 l 0.0863,-3.60066 h 9.00875 c 7.38205,-3.62338 7.53519,-7.38316 0.31007,-11.28215 z"
       style="fill:none;stroke:#ff6600;stroke-width:1;stroke-linecap:butt;stroke-linejoin:miter;stroke-miterlimit:4;stroke-dasharray:none;stroke-opacity:1" />
    <path
       inkscape:label="Defiant"
       sodipodi:nodetypes="ccccccccccccccccccccc"
       id="path1861"
       d="m 586.46339,165.51242 c 0.40913,-3.5367 -7.5299,-1.93606 -11.61997,-2.70402 l -22.65527,0.51158 -3.28866,-1.09623 -1.53472,1.46163 -12.42385,0.0731 -2.41171,2.63094 c -19.84701,1.87011 -13.98591,4.62671 -6.06575,7.45431 l 11.25456,1.24239 1.31545,1.31547 4.96956,0.14616 2.63094,2.41169 h 28.3556 l 4.53107,-1.90012 27.11323,-2.41169 4.53107,3.36175 10.37757,-0.29233 4.67722,-3.80024 c -5.92046,-3.7084 -12.69321,-7.0943 -25.72469,-8.11204 l -2.7771,1.46163 z"
       style="fill:none;stroke:#ff6600;stroke-width:1;stroke-linecap:butt;stroke-linejoin:miter;stroke-miterlimit:4;stroke-dasharray:none;stroke-opacity:1" />
    <path
       inkscape:label="Excelsior"
       sodipodi:nodetypes="cccccccccccccccccccccccccccccccccccccccccccccccccccccccccccccccccccccccc"
       id="path2674"
       d="m 714.85433,167.23053 6.43117,0.14616 10.15833,-2.19245 -0.0731,-5.99268 -5.26187,0.0731 -1.46161,1.1693 c -1.55133,0.52555 -3.44287,0.83846 -5.77345,0.87698 h -53.4226 l -1.38853,-1.1693 h -2.99636 v -0.95006 h -9.71984 l -1.68087,2.7771 h 2.26552 v 2.77709 h -2.55783 l 4.23871,3.36175 c 3.30136,-1.18703 6.51427,-1.40112 9.71986,-1.53471 h 33.25207 l 5.04264,1.09623 v 1.46163 c -2.93992,0.095 -5.29076,0.88312 -6.57736,2.92325 h -3.36174 l -1.04691,-1.81331 h -4.58036 l -1.02314,-0.81762 c -5.07884,0.21185 -9.51301,1.29863 -13.22776,3.36175 l 0.43849,0.95006 h 11.18148 l 2.11936,1.53471 h 24.77463 c 4.67464,1.20964 9.17022,1.62472 15.34711,9.5006 6.18272,0.23686 12.03654,-0.31565 17.24723,-2.41169 4.69398,-0.62689 10.77885,-0.81223 9.64676,-3.28867 l 4.16565,-4.38489 h 0.87699 v -0.8039 h 0.87696 v -1.60779 l 3.50793,-3.72716 h 4.45796 l -0.22902,0.85478 h 3.51769 c 3.84896,1.58108 7.69793,0.91329 11.54689,0 l 0.0274,-0.85935 c 5.63156,0.0286 10.12631,-0.536 14.73504,-1.01857 h 10.30449 l -1.60779,-2.11936 h -2.2655 l -0.58465,-1.02314 c -6.26806,-1.56968 -13.71381,-1.72611 -20.90132,-2.19245 v -1.02314 h -1.9001 c -1.29349,-1.12388 -2.68585,-2.15988 -5.70037,-1.75396 l 0.22905,0.85478 h -1.25219 l -1.09623,0.89918 h -27.99021 l -0.14616,0.73081 h -7.0889 l 0.80388,2.41169 4.60415,1.6078 -0.28874,1.0776 1.67727,1.18792 h 3.58101 l -3.21559,4.53106 -23.89764,0.21924 v -0.95006 c -1.94345,-2.55461 -4.34439,-2.91678 -7.34471,-3.06942 l 0.0143,-0.92069 h 2.21464 z"
       style="fill:none;stroke:#ff6600;stroke-width:1;stroke-linecap:butt;stroke-linejoin:miter;stroke-miterlimit:4;stroke-dasharray:none;stroke-opacity:1" />
    <path
       inkscape:label="Hermes"
       sodipodi:nodetypes="ccccccccccccccccccccccccc"
       id="path5861"
       d="m 552.93782,402.14599 h -45.83698 c 0.38021,2.72501 5.39335,4.43807 4.8059,6.82131 l 65.06061,0.72347 c 6.95829,-1.04407 5.54667,-7.32584 0.0517,-7.95819 h -8.78499 l 13.43589,-7.85482 c 3.18595,1.78939 6.24129,3.67924 11.16211,4.13412 0.0905,3.24996 -1.15795,7.27084 3.20392,8.06153 v -6.8213 l -2.3771,2.58382 v -3.9274 c 5.87026,-0.54247 9.1288,-2.76392 13.22917,-4.44418 h 14.88281 l 2.27375,-3.51398 h -12.0923 c -3.90911,-1.35793 -8.08053,-2.01639 -12.40234,-2.27378 -0.5771,-1.14545 -1.52709,-1.91802 -3.20395,-1.96371 -1.52417,-1.74318 -3.40959,-2.43871 -6.30452,-0.20669 -5.20501,-0.0183 -6.71819,1.31708 -7.85482,2.79053 l -4.65087,1.24024 h -15.70963 v 2.68716 l 1.83906,0.49278 z"
       style="fill:none;stroke:#ff6600;stroke-width:1;stroke-linecap:butt;stroke-linejoin:miter;stroke-miterlimit:4;stroke-dasharray:none;stroke-opacity:1" />
    <path
       inkscape:label="Intrepid"
       sodipodi:nodetypes="ccccccccccccccccccccccc"
       id="path7173"
       d="m 938.80574,-89.141852 -2.79054,-2.42879 h -4.44418 l -2.37709,-2.22209 h -4.34084 l -0.6201,0.98186 h -8.3199 l -0.9302,1.39526 c -25.72723,2.01453 -26.61192,12.33107 -64.9056,13.33252 l -6.04612,2.42879 c -2.1927,-0.10031 -3.93573,0.29403 -4.75425,1.70532 h -3.15224 c -1.08653,0.56746 -2.68505,0.75091 -2.22211,2.48047 h 5.37435 l 0.46509,2.11874 h 28.78378 l 2.1704,2.79052 c 15.92715,1.27405 31.84354,2.72024 47.90406,1.86036 2.92122,-4.37978 3.20357,-9.30285 10.33528,-12.81576 16.17548,2.69829 30.11683,2.23158 42.99479,0.25838 h 17.46663 v -2.42879 c -15.15668,-4.15641 -28.7593,-9.22698 -50.59121,-9.45679 z"
       style="fill:none;stroke:#ff6600;stroke-width:1;stroke-linecap:butt;stroke-linejoin:miter;stroke-miterlimit:4;stroke-dasharray:none;stroke-opacity:1" />
    <path
       inkscape:label="Nebula"
       sodipodi:nodetypes="ccccccccccccccccccccccccccccccc"
       id="path7992"
       d="m 902.99397,-37.82715 c -16.65633,1.533895 -33.70646,-0.607615 -49.60937,7.958172 l 4.75421,-8.164877 h 3.61736 l 1.03354,-1.446939 h 10.95539 c 3.5829,-2.067057 3.5829,-4.134115 0,-6.201172 -13.64618,-1.393708 -27.68222,-2.153908 -43.51155,0 -3.18848,2.239312 -2.87145,4.478625 0,6.717937 h 10.85205 l 0.93017,1.240234 2.92565,-0.783926 -4.68264,6.571686 -2.99723,7.131346 -1.5503,-0.826823 -3.9274,7.958173 -2.89388,1.963704 v 5.270997 c -0.64429,3.9880819 1.26989,5.9293909 4.75422,6.6145819 h 63.04526 l 1.75699,-1.963704 h 11.67887 c 5.26153,0.0693 6.80551,-7.2281649 0,-7.8548169 h -12.09228 l 3.72071,-5.891114 -0.82683,-3.410646 c 23.5124,5.00051 39.40467,-2.699206 57.56754,-6.614584 h 20.98064 l -1.44695,-3.100585 c -14.25889,-3.426385 -36.00929,-4.926384 -59.84129,-5.891112 -5.06507,0.228686 -10.39434,-3.769697 -15.19288,0.723468 z"
       style="fill:none;stroke:#ff6600;stroke-width:1;stroke-linecap:butt;stroke-linejoin:miter;stroke-miterlimit:4;stroke-dasharray:none;stroke-opacity:1" />
    <g
       inkscape:label="New Orleans"
       id="g10400">
      <path
         sodipodi:nodetypes="cccccccccccccccccccccccccccccccc"
         id="path9407"
         d="m 920.25389,25.011393 h -3.20394 l -0.6201,-1.963704 -9.81853,-0.930176 -21.39405,0.620117 v 2.480469 l -4.13412,-0.620118 h -50.53954 c -6.89641,0.640306 -6.36067,7.110743 0,7.131349 h 22.53094 l 0.82682,0.826823 1.78729,0.227486 c 1.14009,1.736649 1.58793,3.80862 4.51723,5.353569 h 15.39957 c -9.99401,1.140812 -19.96105,2.344557 -29.1455,5.374349 v 1.240234 h 4.96094 c 14.68046,2.106656 23.79419,6.440003 48.47249,4.547526 l -0.53753,2.006105 h -13.82853 v 4.091713 h 22.22087 l 9.09506,-0.723469 v -2.170411 l -10.95542,-1.136881 v -2.273763 c 13.36674,1.182527 23.90113,-1.096713 27.38853,-11.988932 15.37385,-0.805276 21.91703,-2.909177 28.11198,-5.064291 h 12.19562 l -0.46003,-1.716818 c -10.05697,-3.382367 -22.28406,-5.095411 -35.92018,-5.724589 -5.29503,-0.636573 -8.92472,-4.906628 -16.94987,0.413412 z"
         style="fill:none;stroke:#ff6600;stroke-width:1;stroke-linecap:butt;stroke-linejoin:miter;stroke-miterlimit:4;stroke-dasharray:none;stroke-opacity:1" />
      <path
         sodipodi:nodetypes="cccccc"
         id="path9993"
         d="m 873.65532,31.745959 c 0.37006,2.079355 0.4394,4.597043 4.60155,5.553263 v -1.395306 h 3.66843 l 5.21745,-4.422064 z"
         style="fill:none;stroke:#ff6600;stroke-width:1;stroke-linecap:butt;stroke-linejoin:miter;stroke-miterlimit:4;stroke-dasharray:none;stroke-opacity:1" />
    </g>
    <path
       inkscape:label="Norway"
       sodipodi:nodetypes="ccccccccccccccccccccccccccccccccc"
       id="path10751"
       d="m 914.21606,92.71768 h -5.55413 l -0.87744,-0.94732 -11.83958,-0.58472 -1.31601,-1.52906 h -4.67712 l -0.8034,1.39087 h -46.18752 l -1.02349,-0.85693 h -4.16565 l -1.24156,1.9755 v 1.53471 h 1.68153 l 2.56003,5.1139 -1.89968,1.02395 -4.16936,0.16706 v 3.92734 h 53.06269 c 3.7253,0.0169 3.98888,-4.25458 0,-4.18833 h -20.61093 l 8.47595,-3.795 c 5.04591,0.64035 7.15894,-0.29693 9.79252,-0.95421 l 4.45873,1.82514 0.14693,1.7539 2.2675,4.67625 3.80193,3.94479 6.65107,1.53189 58.904,0.7058 1.02227,-2.04671 c -7.80388,-2.95602 -14.49462,-6.35785 -24.04749,-8.61341 l -5.04268,-0.29214 -3.07041,-2.18919 z"
       style="fill:none;stroke:#ff6600;stroke-width:1;stroke-linecap:butt;stroke-linejoin:miter;stroke-miterlimit:4;stroke-dasharray:none;stroke-opacity:1" />
    <path
       inkscape:label="Nova"
       sodipodi:nodetypes="ccccccccccccccccc"
       id="path11831"
       d="m 893.04141,137.45257 h -7.52731 l -5.18983,-2.26013 -26.41892,0.0741 c -7.03101,0.28479 -5.22368,2.56563 0.0375,2.20267 l 1.53514,1.02249 h 12.49683 l 1.38935,1.6019 c -3.0071,0.3774 -6.37991,0.29805 -7.52613,2.99953 4.45246,1.06238 10.9734,-0.2522 13.08307,3.50236 7.0161,0.64278 14.03305,3.29294 21.04816,1.59886 1.78762,-1.77742 3.14483,-3.92344 6.20998,-4.60677 h 22.65532 c -3.71602,-2.64704 -7.45739,-5.25678 -12.79167,-5.52185 l -1.7546,-1.53397 h -16.22428 z"
       style="fill:none;stroke:#ff6600;stroke-width:1;stroke-linecap:butt;stroke-linejoin:miter;stroke-miterlimit:4;stroke-dasharray:none;stroke-opacity:1" />
    <path
       inkscape:label="Oberth"
       sodipodi:nodetypes="cccccccccccsccccccccccccccc"
       id="path12847"
       d="m 902.85767,165.65305 h -34.46822 c -2.97888,0.62028 -3.33238,1.36896 -3.5129,2.49659 h 8.21648 l 1.86108,1.54602 h -1.60198 v 2.79127 h 5.27212 c 3.36714,1.2166 3.54796,2.7532 4.29101,4.23334 -5.85985,-0.39317 -11.85425,-0.30115 -18.39606,1.76481 h -15.60631 c 4.0098,1.77947 0.99187,3.6839 15.41872,4.79208 7.48672,0.57508 16.33181,0.98952 23.49625,1.24417 l 0.98123,-1.44736 17.93058,-2.69479 h 1.602 l 0.87767,-1.8614 h -2.79045 c -3.44483,-1.44989 -7.63395,-2.21216 -12.86836,-2.00873 1.9085,-1.70974 3.95753,-3.23895 6.81972,-3.7236 l 0.29805,-1.11237 h 7.09128 v -1.11286 h 6.35574 c 0.10748,-1.28474 -1.20549,-3.23388 -3.98063,-3.41165 h -5.42602 z"
       style="fill:none;stroke:#ff6600;stroke-width:1;stroke-linecap:butt;stroke-linejoin:miter;stroke-miterlimit:4;stroke-dasharray:none;stroke-opacity:1" />
    <path
       inkscape:label="Olympic"
       sodipodi:nodetypes="cccccccccccccccccccccccccsccc"
       id="path14206"
       d="m 895.27853,220.11614 -6.09751,0.72606 -2.79178,-2.99605 1.23947,-1.75752 h 4.96093 c 4.5213,-0.0127 5.12201,-6.93565 0,-7.02975 l -22.22383,0.009 -5.16708,1.34578 h -30.69611 l -1.44624,0.94383 v 2.48055 l 1.86204,1.44606 h 26.97487 l 10.02583,0.91447 5.3766,5.26871 c -2.18241,1.14804 -4.08004,2.65176 -5.16546,5.16984 h -13.95254 c -7.93059,-0.14583 -19.36493,-4.92155 -23.4607,0 H 817.3536 c -2.18023,2.50671 1.09115,2.39381 1.9648,3.43307 6.3724,10.04527 29.55165,9.31653 47.13409,12.17562 l 7.85754,6.40455 c 11.09602,4.0687 17.94164,3.04132 18.70461,-5.27894 2.49234,-1.90413 2.61876,-5.12134 2.68362,-8.37272 h 4.65103 c 11.38862,16.30649 28.55066,7.41812 31.75338,-4.47673 3.5109,-13.03948 -13.20291,-29.00143 -29.17827,-15.68015 l -4.13332,1.8621 c -0.43811,1.26342 0.62929,2.78575 -3.51255,3.41222 z"
       style="fill:none;stroke:#ff6600;stroke-width:1;stroke-linecap:butt;stroke-linejoin:miter;stroke-miterlimit:4;stroke-dasharray:none;stroke-opacity:1" />
    <path
       inkscape:label="Sabre"
       sodipodi:nodetypes="cccccccccccccccccccccccc"
       id="path15410"
       d="m 771.40447,240.54915 c 10.7174,-0.25815 20.5735,-1.95039 30.76602,-3.08249 v -1.46159 c -6.20837,-2.01802 -9.22756,-5.55636 -19.07739,-5.83846 h -12.42372 c -15.40716,-4.1779 -34.98869,-3.29825 -53.93566,-3.18741 v -2.04638 h -17.32105 v 4.02694 h 5.11725 l 6.06944,8.54578 -3.79963,1.46325 -1.16879,1.1698 3.65609,4.74874 v 2.48465 h 14.69046 c 3.38148,2.78192 10.82052,3.68903 19.22216,4.15137 l 5.9926,-5.99259 h 5.11329 l -0.0733,2.71757 9.42838,-1.0272 2.4836,-2.72334 c 3.74076,0.78088 4.35978,-1.25661 5.26054,-3.14474 z"
       style="fill:none;stroke:#ff6600;stroke-width:1;stroke-linecap:butt;stroke-linejoin:miter;stroke-miterlimit:4;stroke-dasharray:none;stroke-opacity:1" />
    <path
       inkscape:label="Sovereign"
       sodipodi:nodetypes="cccccccccccccccccccccccccccccccccccccccccccccccccccccc"
       id="path16547"
       d="m 854.48728,284.45188 -6.40788,-0.0517 -0.92991,0.62323 h -10.33536 l -0.92988,0.54738 v 1.39533 h -3.5651 l -0.51702,-0.67013 h -6.30439 l -1.49791,2.01869 -4.18523,1.29368 -10.80014,0.25812 c -5.75895,1.05695 -7.90282,1.78734 -21.03133,2.5976 l -3.1528,-1.23888 h 3.97904 l 1.13647,-1.08738 h 12.9191 c 16.3869,-1.80469 -0.93327,-6.73521 -4.34396,-7.39339 h -6.56296 c -1.71937,0.65049 -3.49344,1.27913 -5.89034,1.65894 l -39.63508,1.77385 -0.72364,-0.41312 -9.87004,0.36594 -1.96274,2.32627 5.47855,1.96136 h 18.29334 l 3.463,1.33437 h 8.37158 l 8.83774,2.47314 -1.23971,1.24076 h -2.68726 v 1.49982 h 2.58447 l 0.46554,0.92882 h 16.43306 l 12.35273,4.74202 h 8.99168 l 21.34087,-3.57854 v -0.77515 c 3.80969,-3.82808 10.76781,-3.9385 17.51616,-4.2966 3.95587,1.81174 7.74087,1.94617 11.21338,-0.9866 h 27.49161 v -1.25188 c -0.0779,-0.54728 -3.5097,-2.91149 -8.37329,-3.35544 h -4.08237 c -3.43584,-0.9712 -7.09021,-1.69244 -11.00804,-2.11233 h -3.7207 l -1.13721,-0.72141 h -1.39525 l -0.67209,-0.67152 -1.05936,0.0263 -0.43948,-0.59411 -1.39523,0.10396 c -1.22302,-1.3618 -3.57576,-1.55456 -5.01262,0.0286 z"
       style="fill:none;stroke:#ff6600;stroke-width:1;stroke-linecap:butt;stroke-linejoin:miter;stroke-miterlimit:4;stroke-dasharray:none;stroke-opacity:1" />
    <path
       inkscape:label="Steamrunner"
       sodipodi:nodetypes="cccccccccccccccccccccccccccc"
       id="path18357"
       d="m 849.49637,336.76436 h -1.97315 c -10.51775,-4.93596 -18.86122,-6.49286 -25.87345,-5.98088 -4.06145,-1.9278 -8.00926,-4.15144 -13.95904,-1.16337 h -2.99636 l -1.31595,-1.16748 c -6.22016,0.33755 -12.31533,-0.32825 -18.70829,1.3965 H 772.4654 l -0.43796,0.95544 -12.16822,0.0734 0.10964,-2.0416 h -17.02874 l -2.26491,1.32374 h -3.50793 c -3.09174,2.27644 -9.50648,3.63528 -4.08905,8.26143 -1.80362,2.41402 -3.968,3.62734 -6.35635,4.09525 v 2.04628 l 3.73004,4.74872 h 18.85506 l 5.11455,-2.6411 c 0.5313,-1.99779 0.47572,-3.99532 -1.31802,-5.99212 l 1.9721,-2.63179 h 24.92076 l -1.24132,2.40165 c 5.43107,2.70715 13.28855,2.716 20.3182,3.64543 l 53.2021,-2.94584 2.04594,-0.80476 z"
       style="fill:none;stroke:#ff6600;stroke-width:1;stroke-linecap:butt;stroke-linejoin:miter;stroke-miterlimit:4;stroke-dasharray:none;stroke-opacity:1" />
    <path
       inkscape:label="Miranda"
       sodipodi:nodetypes="ccccccccccccccccccccccccccccccccccccccc"
       id="path19336"
       d="m 792.43419,382.84857 h -13.88544 l -3.94794,-3.50036 0.14646,-3.54463 -1.46391,-1.13201 2.1912,-2.92421 c -7.62291,-0.28499 -16.01204,-2.1008 -22.21659,0.44792 3.04106,0.53765 3.42181,3.45291 6.25055,4.93036 l 2.52134,0.0363 c 3.18507,1.111 6.7457,1.8998 7.31039,5.25876 h -10.52367 l -1.60819,-0.72565 h -8.62367 l -2.48434,0.8817 4.09567,7.30641 h 19.87828 c -5.66558,2.06616 -12.37875,3.41275 -16.65996,6.4298 l -21.92396,1.17861 -13.06059,-0.51674 6.63259,7.97379 5.40721,-1.90241 h 9.7931 l 4.38539,1.60176 h 48.37983 c 1.35434,-2.60881 5.59221,-4.2578 3.79704,-7.91496 h -2.77712 l -0.80333,-0.80332 h -11.47466 l -1.15927,-0.66932 2.76476,-4.6605 h 4.96962 c 11.26212,7.00541 20.48906,5.2508 28.088,-0.71089 l 20.43785,0.25821 1.72718,-4.04128 -12.6912,-0.20653 -17.10237,-3.05694 c -2.57961,-2.84749 -6.64528,-3.81621 -11.84064,-3.35671 l 0.1469,1.75389 z"
       style="fill:none;stroke:#ff6600;stroke-width:1;stroke-linecap:butt;stroke-linejoin:miter;stroke-miterlimit:4;stroke-dasharray:none;stroke-opacity:1" />
    <path
       inkscape:export-ydpi="110.98878"
       inkscape:export-xdpi="110.98878"
       inkscape:export-filename="D:\CS_Projects\Captain'sLog\wwwroot\assets\ships\ufp\PrometheusClass.png"
       inkscape:label="Prometheus"
       sodipodi:nodetypes="ccccccccccccccccccccccccccccccccccc"
       id="path913"
       d="m 1107.7264,-74.050438 c 9.5333,-3.253804 17.8786,-2.104761 26.7114,-2.763001 h 27.5733 v -2.326749 l -1.8523,-1.082829 c -14.0181,-2.055148 -27.4698,-4.492701 -43.0978,-5.461137 -1.7105,-0.661773 -2.7461,-1.714111 -5.6725,-1.67235 l -0.5745,-1.090652 c -3.4366,-0.0084 -7.8322,-1.335377 -9.5501,1.01795 h -3.4465 l -1.9388,2.108602 -11.776,0.6544 c -1.7668,-1.279252 -4.8386,-2.58511 -10.3399,-2.763002 l -32.8869,0.581684 -0.8616,1.01795 -17.5922,0.218133 c -3.9604,1.134537 -5.4764,2.252542 -6.1035,3.853667 l 4.3802,1.817767 30.8761,-0.290849 c -0.6723,1.625256 -2.4068,2.844131 -4.3082,3.999098 h -7.755 v 2.617584 h 10.5553 l 1.5435,0.902362 h 3.1239 c 1.4345,1.556423 2.6412,2.703357 3.5902,3.387571 h -37.8413 l -4.38,1.454217 c 0.5201,1.723495 3.5393,3.504848 6.8932,3.853666 l 17.0896,0.290835 1.2207,1.236083 32.6713,0.581684 c 6.0604,-0.351985 10.9288,-2.739855 12.853,-5.816851 6.492,-0.459623 13.9426,-0.519563 17.377,-2.254033 0.8016,-1.545224 1.951,-2.9143 3.5184,-4.0718 z"
       style="fill:none;stroke:#ff6600;stroke-width:1;stroke-linecap:butt;stroke-linejoin:miter;stroke-miterlimit:4;stroke-dasharray:none;stroke-opacity:1" />
    <g
       inkscape:label="FACTION LABELS"
       id="g9233">
      <text
         sodipodi:insensitive="true"
         id="text1602"
         y="-138.33929"
         x="-805.08923"
         style="font-size:10.5833px;line-height:1.25;font-family:Arial;-inkscape-font-specification:Arial;stroke-width:0.264583"
         xml:space="preserve"><tspan
           y="-138.33929"
           x="-805.08923"
           style="stroke-width:0.264583"
           id="tspan1600"
           sodipodi:role="line">Klingon</tspan></text>
      <text
         sodipodi:insensitive="true"
         id="text3412"
         y="-136.82739"
         x="-582.08337"
         style="font-size:10.5833px;line-height:1.25;font-family:Arial;-inkscape-font-specification:Arial;stroke-width:0.264583"
         xml:space="preserve"><tspan
           y="-136.82739"
           x="-582.08337"
           style="stroke-width:0.264583"
           id="tspan3410"
           sodipodi:role="line">Dominion</tspan></text>
      <text
         sodipodi:insensitive="true"
         id="text5234"
         y="-136.82739"
         x="-342.44638"
         style="font-size:10.5833px;line-height:1.25;font-family:Arial;-inkscape-font-specification:Arial;stroke-width:0.264583"
         xml:space="preserve"><tspan
           y="-136.82739"
           x="-342.44638"
           style="stroke-width:0.264583"
           id="tspan5232"
           sodipodi:role="line">Cardassian</tspan></text>
      <text
         sodipodi:insensitive="true"
         id="text7650"
         y="-145.89882"
         x="-148.16667"
         style="font-size:10.5833px;line-height:1.25;font-family:Arial;-inkscape-font-specification:Arial;stroke-width:0.264583"
         xml:space="preserve"><tspan
           y="-145.89882"
           x="-148.16667"
           style="stroke-width:0.264583"
           id="tspan7648"
           sodipodi:role="line">Romulan</tspan></text>
      <text
         sodipodi:insensitive="true"
         id="text9538"
         y="-149.67857"
         x="49.136902"
         style="font-size:10.5833px;line-height:1.25;font-family:Arial;-inkscape-font-specification:Arial;stroke-width:0.264583"
         xml:space="preserve"><tspan
           y="-149.67857"
           x="49.136902"
           style="stroke-width:0.264583"
           id="tspan9536"
           sodipodi:role="line">Borg</tspan></text>
      <text
         sodipodi:insensitive="true"
         id="text12658"
         y="-148.92262"
         x="198.05952"
         style="font-size:10.5833px;line-height:1.25;font-family:Arial;-inkscape-font-specification:Arial;stroke-width:0.264583"
         xml:space="preserve"><tspan
           y="-148.92262"
           x="198.05952"
           style="stroke-width:0.264583"
           id="tspan12656"
           sodipodi:role="line">Ferengi</tspan></text>
      <text
         sodipodi:insensitive="true"
         id="text14018"
         y="-145.89882"
         x="393.85117"
         style="font-size:10.5833px;line-height:1.25;font-family:Arial;-inkscape-font-specification:Arial;stroke-width:0.264583"
         xml:space="preserve"><tspan
           y="-145.89882"
           x="393.85117"
           style="stroke-width:0.264583"
           id="tspan14016"
           sodipodi:role="line">UFP</tspan></text>
    </g>
  </g>
</svg>
