<?xml version="1.0" standalone="no"?>
<!DOCTYPE svg PUBLIC "-//W3C//DTD SVG 20010904//EN"
 "http://www.w3.org/TR/2001/REC-SVG-20010904/DTD/svg10.dtd">
<svg version="1.0" xmlns="http://www.w3.org/2000/svg"
 width="700.000000pt" height="700.000000pt" viewBox="0 0 700.000000 700.000000"
 preserveAspectRatio="xMidYMid meet">
<metadata>
Created by potrace 1.14, written by Peter Selinger 2001-2017
</metadata>
<g transform="translate(0.000000,700.000000) scale(0.100000,-0.100000)"
fill="#000000" stroke="none">
<path d="M3437 6874 c-1 -1 -60 -4 -132 -8 -71 -3 -146 -8 -165 -10 -19 -3
-59 -7 -88 -10 -29 -3 -63 -8 -75 -11 -12 -3 -38 -7 -57 -10 -134 -17 -403
-87 -580 -150 -156 -55 -421 -177 -530 -243 -19 -12 -48 -29 -65 -38 -56 -31
-240 -156 -325 -222 -123 -95 -220 -181 -340 -302 -129 -130 -164 -169 -258
-290 -40 -52 -79 -102 -85 -110 -79 -100 -235 -367 -324 -555 -81 -174 -188
-475 -218 -614 -2 -9 -10 -47 -19 -86 -24 -114 -51 -282 -61 -376 -15 -154
-22 -468 -11 -559 3 -25 8 -79 11 -120 3 -41 7 -84 9 -95 2 -11 7 -40 10 -65
3 -25 10 -71 16 -104 9 -54 8 -60 -13 -76 l-22 -18 28 -7 c18 -5 29 -16 33
-34 90 -384 215 -696 404 -1011 222 -371 533 -714 890 -982 75 -55 275 -188
285 -188 2 0 28 -15 57 -33 144 -91 542 -262 707 -303 9 -2 68 -17 131 -34
130 -34 125 -33 286 -59 182 -30 347 -44 534 -45 99 0 364 13 382 19 7 2 36 6
63 9 591 69 1203 330 1695 725 112 89 371 342 450 438 115 140 320 427 320
448 0 4 13 25 29 48 37 55 167 319 210 427 75 190 166 495 185 625 4 22 11 65
16 95 5 30 12 78 15 105 3 28 8 61 10 75 23 133 23 577 0 745 -2 17 -9 66 -16
110 -6 44 -13 93 -15 108 -8 62 -66 297 -95 390 l-31 98 26 62 c15 34 33 86
41 116 16 62 14 206 -4 264 -27 85 -155 172 -310 210 -35 9 -64 18 -65 19 -14
32 -197 292 -263 373 -84 105 -312 342 -418 434 -354 310 -849 577 -1293 697
-31 8 -80 22 -108 29 -73 20 -318 64 -389 71 -33 3 -66 7 -73 10 -8 2 -82 7
-165 10 -84 3 -169 7 -190 8 -20 1 -38 2 -40 0z"/>
</g>
</svg>
