<?xml version="1.0" encoding="UTF-8" standalone="no"?>
<svg
   xmlns:dc="http://purl.org/dc/elements/1.1/"
   xmlns:cc="http://creativecommons.org/ns#"
   xmlns:rdf="http://www.w3.org/1999/02/22-rdf-syntax-ns#"
   xmlns:svg="http://www.w3.org/2000/svg"
   xmlns="http://www.w3.org/2000/svg"
   xmlns:sodipodi="http://sodipodi.sourceforge.net/DTD/sodipodi-0.dtd"
   xmlns:inkscape="http://www.inkscape.org/namespaces/inkscape"
   width="128mm"
   height="128mm"
   viewBox="0 0 128 128"
   version="1.1"
   id="svg5"
   inkscape:version="1.0 (4035a4fb49, 2020-05-01)"
   sodipodi:docname="people.svg">
  <metadata
     id="metadata8">
    <rdf:RDF>
      <cc:Work
         rdf:about="">
        <dc:format>image/svg+xml</dc:format>
        <dc:type
           rdf:resource="http://purl.org/dc/dcmitype/StillImage" />
        <dc:title></dc:title>
      </cc:Work>
    </rdf:RDF>
  </metadata>
  <sodipodi:namedview
     id="namedview7"
     pagecolor="#ffffff"
     bordercolor="#666666"
     borderopacity="1.0"
     inkscape:pageshadow="2"
     inkscape:pageopacity="0.0"
     inkscape:pagecheckerboard="0"
     inkscape:document-units="mm"
     showgrid="false"
     inkscape:zoom="1.1326109"
     inkscape:cx="226.07096"
     inkscape:cy="295.68951"
     inkscape:window-width="1680"
     inkscape:window-height="987"
     inkscape:window-x="-8"
     inkscape:window-y="-8"
     inkscape:window-maximized="1"
     inkscape:current-layer="layer1"
     inkscape:document-rotation="0" />
  <defs
     id="defs2" />
  <g
     inkscape:label="Layer 1"
     inkscape:groupmode="layer"
     id="layer1">
    <ellipse
       ry="17.626875"
       rx="17.62644"
       cy="41.53072"
       cx="20.216921"
       id="path834"
       style="fill:#ffffff;stroke:none;stroke-width:3;stroke-linecap:round;stroke-linejoin:round" />
    <path
       sodipodi:nodetypes="cssssssssc"
       d="m 2.6780149,74.216884 c 0.214802,-18.31549 35.1023241,-16.939168 34.8330011,0 -6.02e-4,0.03787 0.08753,0.0305 0.08753,0.06838 v 45.570356 c 0,0.038 -0.03904,0.0683 -0.08753,0.0683 H 2.6780149 c -0.048493,0 -0.087532,-0.0305 -0.087532,-0.0683 V 74.285264 c 0,-0.03788 0.039039,-0.06838 0.087532,-0.06838 z"
       style="fill:#ffffff;stroke:none;stroke-width:3;stroke-linecap:round;stroke-linejoin:round"
       id="rect836" />
    <ellipse
       ry="17.626875"
       rx="17.62644"
       style="fill:#ffffff;stroke:none;stroke-width:3;stroke-linecap:round;stroke-linejoin:round"
       id="path834-9"
       cx="108.34912"
       cy="40.901096" />
    <path
       id="rect836-7"
       style="fill:#ffffff;stroke:none;stroke-width:3;stroke-linecap:round;stroke-linejoin:round"
       d="m 90.810217,73.58726 c 0.214802,-18.315492 35.102313,-16.939169 34.833003,0 -5.6e-4,0.03787 0.0875,0.0305 0.0875,0.06838 v 45.57037 c 0,0.0379 -0.0391,0.0683 -0.0875,0.0683 H 90.810217 c -0.04849,0 -0.08752,-0.0305 -0.08752,-0.0683 V 73.655638 c 0,-0.03788 0.03904,-0.06838 0.08752,-0.06838 z"
       sodipodi:nodetypes="cssssssssc" />
    <ellipse
       ry="22.763542"
       rx="22.9517"
       style="fill:#ffffff;stroke:none;stroke-width:3;stroke-linecap:round;stroke-linejoin:round"
       id="path834-1"
       cx="64.116722"
       cy="24.138348" />
    <path
       id="rect836-3"
       style="fill:#ffffff;stroke:none;stroke-width:3;stroke-linecap:round;stroke-linejoin:round"
       d="m 41.278992,65.732804 c 0.2797,-23.652831 45.707364,-21.875432 45.356679,0 -7.23e-4,0.04891 0.113943,0.03939 0.113943,0.0883 v 58.850066 c 0,0.049 -0.0509,0.0882 -0.113943,0.0882 H 41.278992 c -0.06318,0 -0.113943,-0.0394 -0.113943,-0.0882 V 65.82111 c 0,-0.04892 0.0509,-0.08831 0.113943,-0.08831 z"
       sodipodi:nodetypes="cssssssssc" />
  </g>
</svg>
